<svg width="757" height="706" viewBox="0 0 757 706" fill="none" xmlns="http://www.w3.org/2000/svg">
<path d="M155.167 215.696L165.516 211.168C174.685 207.157 184.405 204.545 194.349 203.419L235.529 198.757C239.827 194.378 244.749 190.659 250.136 187.721L260.265 182.196C263.933 180.195 267.787 178.554 271.771 177.295C281.332 174.276 291.463 173.519 301.366 175.082L306.836 175.946L334.689 183.474C342.425 185.565 350.681 184.369 357.505 180.169C359.729 178.8 362.127 177.738 364.635 177.01L380.69 172.349C389.75 169.718 399.137 168.383 408.571 168.383H437.565L454.327 170.059C464.69 171.096 474.814 173.823 484.296 178.133L490.491 180.949C492.655 181.932 494.705 183.148 496.607 184.574C503.111 189.452 511.193 191.745 519.289 191.009L526.282 190.373C529.076 190.119 531.886 190.095 534.684 190.303L559.651 192.152L562.011 192.467C571.197 193.692 580.169 196.187 588.667 199.883L600.707 205.117L629.878 221.323L654.727 239.69L673.192 255.201C678.871 259.971 684.002 265.359 688.489 271.263L695.579 280.591C700.023 286.439 703.809 292.758 706.869 299.434L714.149 315.319L721.022 335.936C722.919 341.627 724.3 347.477 725.148 353.416L728.195 374.741L733.597 414.717V435.378C733.597 441.041 733.116 446.693 732.159 452.275L727.114 481.702L719.551 513.034L707.667 544.366L694.702 569.215L678.496 594.065L664.451 612.432L646.084 630.799L626.916 646.772C622.417 650.521 617.597 653.868 612.511 656.774L589.903 669.693L565.053 680.497L527.239 691.302L492.609 699.293C487.612 700.446 482.535 701.213 477.42 701.587L440.806 704.266L398.67 705.347H365.178H337.087L302.514 703.186L270.102 699.945L236.757 695.557C231.624 694.882 226.552 693.809 221.586 692.348L192.313 683.739L155.579 668.613L137.335 657.971C132.221 654.988 127.382 651.556 122.875 647.717L106.06 633.393C102.344 630.227 98.864 626.793 95.6491 623.119L62.6637 585.421L49.2029 565.23C45.2234 559.261 41.8979 552.881 39.2836 546.2L28.0875 517.588C25.2186 510.256 23.2255 502.611 22.1497 494.812L19.4474 475.22L18.367 450.37L19.4474 421.199L20.1817 401.371C20.4119 395.156 21.2215 388.976 22.5999 382.911L25.9298 368.259L32.4123 347.731L39.1788 332.694C41.1477 328.319 43.4289 324.091 46.0048 320.043L57.2616 302.354L84.2718 269.942L107.405 248.659C109.992 246.279 112.697 244.043 115.52 241.948L135.664 227.002C141.719 222.51 148.261 218.718 155.167 215.696Z" fill="url(#paint0_linear_382_629)"/>
<path d="M236.609 198.635L235.529 198.757M235.529 198.757L194.349 203.419C184.405 204.545 174.685 207.157 165.516 211.168L155.167 215.696C148.261 218.718 141.719 222.51 135.665 227.002L115.52 241.948C112.697 244.043 109.992 246.279 107.405 248.659C101.892 253.731 91.6394 263.163 84.2718 269.942L57.2616 302.354L46.0048 320.043C43.4289 324.091 41.1477 328.319 39.1788 332.694L32.4123 347.731L25.9298 368.259L22.5999 382.911C21.2215 388.976 20.4119 395.156 20.1817 401.371L19.4474 421.199L18.367 450.37L19.4474 475.22L22.1497 494.812C23.2255 502.611 25.2186 510.256 28.0875 517.588L39.2836 546.2C41.8979 552.881 45.2234 559.261 49.2029 565.23L62.6637 585.421L95.6491 623.119C98.864 626.793 102.344 630.227 106.06 633.393L122.875 647.717C127.382 651.556 132.221 654.988 137.335 657.971L155.579 668.613L192.313 683.739L221.586 692.348C226.552 693.809 231.624 694.882 236.757 695.557L270.102 699.945L302.514 703.186L337.087 705.347H365.178H398.67L440.806 704.266L477.42 701.587C482.535 701.213 487.612 700.446 492.609 699.293L527.239 691.302L565.053 680.497L589.903 669.693L612.511 656.774C617.597 653.868 622.417 650.521 626.916 646.772L646.084 630.799L664.451 612.432L678.496 594.065L694.702 569.215L707.667 544.366L719.551 513.034L727.114 481.702L732.159 452.275C733.116 446.693 733.597 441.041 733.597 435.378V414.717L728.195 374.741L725.148 353.416C724.3 347.477 722.919 341.627 721.022 335.936L714.149 315.319L706.869 299.434C703.809 292.758 700.023 286.439 695.579 280.591L688.489 271.263C684.002 265.359 678.871 259.971 673.192 255.201L654.727 239.69L629.878 221.323L600.707 205.117L588.667 199.883C580.169 196.187 571.197 193.692 562.011 192.467L559.651 192.152L534.684 190.303C531.886 190.095 529.076 190.119 526.282 190.373L519.289 191.009C511.193 191.745 503.111 189.452 496.607 184.574V184.574C494.705 183.148 492.655 181.932 490.491 180.949L484.296 178.133C474.814 173.823 464.69 171.096 454.327 170.059L437.565 168.383H408.571C399.137 168.383 389.75 169.718 380.69 172.349L364.635 177.01C362.127 177.738 359.729 178.8 357.505 180.169V180.169C350.681 184.369 342.425 185.565 334.689 183.474L306.836 175.946L301.366 175.082C291.463 173.519 281.332 174.276 271.771 177.295V177.295C267.787 178.554 263.933 180.195 260.265 182.196L250.136 187.721C244.749 190.659 239.827 194.378 235.529 198.757V198.757Z" stroke="#25381A" stroke-opacity="0.2"/>
<path d="M392.188 193.233V210.519V211.6V213.76L398.67 214.841H406.233L408.394 211.6L414.876 208.358L412.716 212.68L421.359 215.921L437.565 218.082H451.61L457.012 213.76L463.495 200.795L468.897 189.991L473.218 180.268L476.46 169.464L479.701 158.659L480.781 150.016L479.701 135.971L480.781 125.167L485.103 114.363L490.505 112.202L500.229 107.88L506.711 104.639L511.033 100.317L512.113 92.7544L509.952 95.9956L504.55 100.317L498.068 102.478L488.344 104.639L475.379 112.202L461.334 120.845L450.53 130.569L438.645 147.855L418.118 200.795L428.922 169.464L433.243 150.016V146.775V137.051V119.765L436.485 107.88L437.565 102.478L448.369 97.0761L453.771 92.7544L459.173 90.5936L462.414 85.1915V80.8699V73.307L458.093 64.6638V68.9854V78.7091L453.771 85.1915L448.369 90.5936L441.887 93.8348H436.485L427.841 97.0761L423.52 101.398L422.439 112.202L409.474 119.765L402.992 130.569L398.67 151.097L395.429 160.82L394.349 172.705L392.188 193.233Z" fill="url(#paint1_linear_382_629)" stroke="#25381A"/>
<path d="M289.549 202.956V218.082L306.836 225.645L312.238 222.404L333.846 217.002L354.374 214.841L369.499 212.68V205.117L365.178 192.152L367.339 188.911L365.178 180.268L358.695 167.303L359.776 160.82L363.017 152.177L369.499 145.695H385.705L401.912 151.097L411.635 153.257L428.922 164.061L448.369 170.544L462.414 185.67V178.107L453.771 164.061L446.208 157.579L433.243 151.097L421.359 142.453L411.635 140.292L396.51 137.051L380.303 131.649L370.58 133.81L357.615 140.292L350.892 153.738L345.73 142.453L337.087 114.363L331.685 89.5132L326.283 68.9854V43.0556V19.2866L320.881 2L314.399 24.6886L312.238 37.6535V73.307V107.88L316.559 140.292L323.042 151.097L326.283 170.544L323.042 185.67V212.68H320.881L312.238 205.117L306.836 188.911L292.79 173.785L263.619 164.061L257.137 153.257L238.77 142.453L225.805 120.845L222.564 99.2369L209.599 84.1111L216.082 97.0761V104.639L222.564 140.292L229.046 142.453V151.097L244.172 170.544L257.137 173.785L265.78 183.509L289.549 202.956Z" fill="url(#paint2_linear_382_629)"/>
<path d="M289.549 218.082V202.956L265.78 183.509L257.137 173.785L244.172 170.544L229.046 151.097V142.453L222.564 140.292L216.082 104.639V97.0761L209.599 84.1111L222.564 99.2369L225.805 120.845L238.77 142.453L257.137 153.257L263.619 164.061L292.79 173.785L306.836 188.911L312.238 205.117L320.881 212.68H323.042V185.67L326.283 170.544L323.042 151.097L316.559 140.292L312.238 107.88V73.307V37.6535L314.399 24.6886L320.881 2L326.283 19.2866V43.0556V68.9854L331.685 89.5132L337.087 114.363L345.73 142.453L350.892 153.738L337.087 181.348L357.615 140.292L370.58 133.81L380.303 131.649L396.51 137.051L411.635 140.292L421.359 142.453L433.243 151.097L446.208 157.579L453.771 164.061L462.414 178.107V185.67L448.369 170.544L428.922 164.061L411.635 153.257L401.912 151.097L385.705 145.694H369.499L363.017 152.177L359.776 160.82L358.695 167.303L365.178 180.268L367.339 188.911L365.178 192.152L369.499 205.117V212.68L354.374 214.841L333.846 217.002L312.238 222.404L306.836 225.645L289.549 218.082Z" stroke="#25381A"/>
<g filter="url(#filter0_f_382_629)">
<path d="M426.761 343.409L437.565 331.525L441.887 330.445L461.334 335.847L474.299 338.007L485.103 343.409L491.585 355.294L494.827 368.259L490.505 375.822L474.299 381.224L454.852 382.304L441.887 376.902L427.841 368.259L425.681 354.214L426.761 343.409Z" fill="#F6F3F3" fill-opacity="0.8"/>
</g>
<g filter="url(#filter1_f_382_629)">
<path d="M499.148 197.554L511.033 194.313L505.631 192.152L494.827 194.313L482.942 200.795L472.138 209.439L467.816 215.921L472.138 217.002L474.299 212.68L489.425 200.795L499.148 197.554Z" fill="#9DDB4F"/>
</g>
<g filter="url(#filter2_f_382_629)">
<path d="M35.6535 372.581L27.0102 422.279L29.1711 444.968L30.2515 415.797L37.8143 377.983L47.538 358.535L64.8245 323.962L93.9955 286.148L123.167 266.7L160.981 244.012L207.438 227.806L236.609 220.243L223.644 228.886L210.68 251.575L223.644 235.369L232.288 227.806L250.655 219.162L280.906 218.082L294.951 227.806L290.63 231.047L278.745 242.931L256.057 262.379L249.574 282.907L248.494 307.756L256.057 274.263L278.745 248.333L316.559 227.806L365.178 215.921L434.324 221.323L475.379 222.404L518.596 238.61L556.41 263.459L582.34 288.309L610.43 319.64L633.119 353.133L611.511 317.48L583.42 287.228L558.571 261.298L519.676 236.449L473.219 215.921L434.324 211.6L395.429 208.358H371.66L337.087 211.6L314.399 220.243L306.836 221.323L285.228 215.921L256.057 211.6L224.725 218.082L189.071 231.047L153.418 244.012L122.086 261.298L86.4327 289.389L60.5029 321.801L35.6535 372.581Z" fill="#9DDB4F"/>
</g>
<g filter="url(#filter3_f_382_629)">
<path d="M278.745 213.76L236.609 199.715L262.539 201.876L288.469 215.921L278.745 213.76Z" fill="#9DDB4F"/>
<path d="M541.284 225.645L506.711 229.966H541.284L574.777 240.771L617.993 258.057L655.807 282.907L684.978 314.238L709.828 349.892L729.275 379.063L723.873 367.178L715.23 344.49L687.139 308.836L659.049 278.585L621.234 252.655L580.179 235.368L541.284 225.645Z" fill="#9DDB4F"/>
</g>
<g filter="url(#filter4_f_382_629)">
<path d="M348.972 265.62L355.454 247.253H364.097L380.303 254.816L405.153 258.057L423.52 263.459H437.565L444.047 258.057L463.495 260.218L475.379 271.022V288.309H444.047L393.268 280.746L348.972 265.62Z" fill="#F9FF52" fill-opacity="0.4"/>
</g>
<g filter="url(#filter5_f_382_629)">
<path d="M206.548 396.377L239.85 307.756L239.677 333.651L217.242 402.441L219.342 489.469L234.782 542.09L244.245 577.673L236.252 569.051L213.997 517.068L207.43 465.024L206.548 396.377Z" fill="#F9FF52" fill-opacity="0.4"/>
</g>
<g filter="url(#filter6_f_382_629)">
<path d="M92.789 311.381L169.151 255.421L154.838 277.002L98.4226 322.308L52.566 396.305L36.7002 448.799L25.1542 483.761L23.1803 472.172L32.9919 416.483L55.9692 369.325L92.789 311.381Z" fill="#F9FF52" fill-opacity="0.4"/>
</g>
<g filter="url(#filter7_f_382_629)">
<path d="M655.823 434.161L663.37 506.551L656.176 486.938L648.535 431.296L622.958 365.812L600.097 328.499L585.148 303.111L591.745 308.344L617.984 344.077L636.052 382.382L655.823 434.161Z" fill="#F9FF52" fill-opacity="0.4"/>
</g>
<g filter="url(#filter8_f_382_629)">
<path d="M707.803 352.507L739.776 417.892L726.278 401.946L699.975 352.323L653.445 299.621L619.151 272.442L596.386 253.739L604.38 256.386L641.303 280.921L671.438 310.681L707.803 352.507Z" fill="#F9FF52" fill-opacity="0.4"/>
</g>
<g filter="url(#filter9_f_382_629)">
<path d="M214.696 257.742L218.779 246.068L221.053 246.518L228.687 247.365L233.421 250.212L238.929 253.109L240.698 257.747L245.537 260.173L247.267 267.858L245.031 279.163L236.784 277.532L224.397 269.941L214.696 257.742Z" fill="#F9FF52" fill-opacity="0.4"/>
</g>
<g filter="url(#filter10_f_382_629)">
<path d="M531.8 217.812L530.3 208.813L532.4 208.046L539.169 205.068L544.346 204.638L550.195 203.884L553.639 205.906L558.727 205.172L563.424 209.072L566.319 216.999L558.705 219.78L547.061 215.449L531.8 217.812Z" fill="#F9FF52" fill-opacity="0.4"/>
</g>
<defs>
<filter id="filter0_f_382_629" x="413.681" y="318.445" width="93.1461" height="75.8596" filterUnits="userSpaceOnUse" color-interpolation-filters="sRGB">
<feFlood flood-opacity="0" result="BackgroundImageFix"/>
<feBlend mode="normal" in="SourceGraphic" in2="BackgroundImageFix" result="shape"/>
<feGaussianBlur stdDeviation="6" result="effect1_foregroundBlur_382_629"/>
</filter>
<filter id="filter1_f_382_629" x="465.816" y="190.152" width="47.2163" height="28.8495" filterUnits="userSpaceOnUse" color-interpolation-filters="sRGB">
<feFlood flood-opacity="0" result="BackgroundImageFix"/>
<feBlend mode="normal" in="SourceGraphic" in2="BackgroundImageFix" result="shape"/>
<feGaussianBlur stdDeviation="1" result="effect1_foregroundBlur_382_629"/>
</filter>
<filter id="filter2_f_382_629" x="26.0102" y="207.358" width="608.109" height="238.61" filterUnits="userSpaceOnUse" color-interpolation-filters="sRGB">
<feFlood flood-opacity="0" result="BackgroundImageFix"/>
<feBlend mode="normal" in="SourceGraphic" in2="BackgroundImageFix" result="shape"/>
<feGaussianBlur stdDeviation="0.5" result="effect1_foregroundBlur_382_629"/>
</filter>
<filter id="filter3_f_382_629" x="234.609" y="197.715" width="496.666" height="183.348" filterUnits="userSpaceOnUse" color-interpolation-filters="sRGB">
<feFlood flood-opacity="0" result="BackgroundImageFix"/>
<feBlend mode="normal" in="SourceGraphic" in2="BackgroundImageFix" result="shape"/>
<feGaussianBlur stdDeviation="1" result="effect1_foregroundBlur_382_629"/>
</filter>
<filter id="filter4_f_382_629" x="336.972" y="235.253" width="150.408" height="65.0555" filterUnits="userSpaceOnUse" color-interpolation-filters="sRGB">
<feFlood flood-opacity="0" result="BackgroundImageFix"/>
<feBlend mode="normal" in="SourceGraphic" in2="BackgroundImageFix" result="shape"/>
<feGaussianBlur stdDeviation="6" result="effect1_foregroundBlur_382_629"/>
</filter>
<filter id="filter5_f_382_629" x="194.548" y="295.756" width="61.6977" height="293.917" filterUnits="userSpaceOnUse" color-interpolation-filters="sRGB">
<feFlood flood-opacity="0" result="BackgroundImageFix"/>
<feBlend mode="normal" in="SourceGraphic" in2="BackgroundImageFix" result="shape"/>
<feGaussianBlur stdDeviation="6" result="effect1_foregroundBlur_382_629"/>
</filter>
<filter id="filter6_f_382_629" x="11.1803" y="243.421" width="169.971" height="252.34" filterUnits="userSpaceOnUse" color-interpolation-filters="sRGB">
<feFlood flood-opacity="0" result="BackgroundImageFix"/>
<feBlend mode="normal" in="SourceGraphic" in2="BackgroundImageFix" result="shape"/>
<feGaussianBlur stdDeviation="6" result="effect1_foregroundBlur_382_629"/>
</filter>
<filter id="filter7_f_382_629" x="573.148" y="291.111" width="102.222" height="227.44" filterUnits="userSpaceOnUse" color-interpolation-filters="sRGB">
<feFlood flood-opacity="0" result="BackgroundImageFix"/>
<feBlend mode="normal" in="SourceGraphic" in2="BackgroundImageFix" result="shape"/>
<feGaussianBlur stdDeviation="6" result="effect1_foregroundBlur_382_629"/>
</filter>
<filter id="filter8_f_382_629" x="584.386" y="241.739" width="167.39" height="188.152" filterUnits="userSpaceOnUse" color-interpolation-filters="sRGB">
<feFlood flood-opacity="0" result="BackgroundImageFix"/>
<feBlend mode="normal" in="SourceGraphic" in2="BackgroundImageFix" result="shape"/>
<feGaussianBlur stdDeviation="6" result="effect1_foregroundBlur_382_629"/>
</filter>
<filter id="filter9_f_382_629" x="202.696" y="234.068" width="56.5717" height="57.0953" filterUnits="userSpaceOnUse" color-interpolation-filters="sRGB">
<feFlood flood-opacity="0" result="BackgroundImageFix"/>
<feBlend mode="normal" in="SourceGraphic" in2="BackgroundImageFix" result="shape"/>
<feGaussianBlur stdDeviation="6" result="effect1_foregroundBlur_382_629"/>
</filter>
<filter id="filter10_f_382_629" x="518.3" y="191.884" width="60.019" height="39.8953" filterUnits="userSpaceOnUse" color-interpolation-filters="sRGB">
<feFlood flood-opacity="0" result="BackgroundImageFix"/>
<feBlend mode="normal" in="SourceGraphic" in2="BackgroundImageFix" result="shape"/>
<feGaussianBlur stdDeviation="6" result="effect1_foregroundBlur_382_629"/>
</filter>
<linearGradient id="paint0_linear_382_629" x1="375.982" y1="168.383" x2="375.982" y2="705.347" gradientUnits="userSpaceOnUse">
<stop stop-color="#8FDB15"/>
<stop offset="1" stop-color="#3E871D"/>
</linearGradient>
<linearGradient id="paint1_linear_382_629" x1="474.299" y1="68.9854" x2="415.957" y2="210.519" gradientUnits="userSpaceOnUse">
<stop stop-color="#699E48"/>
<stop offset="0.956793" stop-color="#25381A"/>
</linearGradient>
<linearGradient id="paint2_linear_382_629" x1="317.64" y1="2" x2="325.203" y2="219.162" gradientUnits="userSpaceOnUse">
<stop stop-color="#699E48"/>
<stop offset="0.779713" stop-color="#41622D"/>
<stop offset="1" stop-color="#25381A"/>
</linearGradient>
</defs>
</svg>
